{"glyphs":{":":{"x_min":0,"x_max":360,"ha":360,"o":"m 120 0 l 240 0 l 240 120 l 120 120 z m 120 480 l 240 480 l 240 600 l 120 600 z"},"$":{"x_min":0,"x_max":629,"ha":629,"o":"m 263 -80 l 363 -80 l 363 -7 b 489 12 589 107 589 226 b 589 325 525 416 428 447 l 363 468 l 363 685 b 390 674 410 651 420 615 l 531 650 b 515 743 443 795 363 808 l 363 880 l 263 880 l 263 805 b 258 804 254 802 249 801 b 127 766 50 645 84 528 b 103 462 153 410 216 390 l 263 375 l 263 119 b 205 137 166 185 154 251 l 40 217 b 58 97 149 15 263 -5 z m 363 343 l 388 335 b 444 317 469 273 469 231 b 469 183 427 134 363 117 z m 263 501 l 257 503 b 228 513 207 535 199 561 b 187 603 212 654 263 678 z"},"?":{"x_min":0,"x_max":513,"ha":513,"o":"m 291 0 l 291 114 l 171 114 l 171 0 z m 425 476 b 465 521 482 602 467 661 b 440 766 323 825 208 798 b 101 773 7 671 52 551 l 164 577 b 149 637 177 673 236 687 b 293 700 343 673 353 634 b 361 602 352 569 335 550 l 231 431 b 195 389 171 339 171 288 l 171 214 l 291 214 l 291 289 b 291 312 299 335 320 358 l 425 476 z"},"<":{"x_min":0,"x_max":580,"ha":580,"o":"m 500 114 l 500 214 l 230 300 l 500 386 l 500 486 l 60 348 l 60 252 z"},"'":{"x_min":0,"x_max":240,"ha":240,"o":"m 100 600 l 140 600 l 180 720 l 180 800 l 60 800 l 60 720 z"},"=":{"x_min":0,"x_max":560,"ha":560,"o":"m 80 140 l 480 140 l 480 260 l 80 260 z m 80 340 l 480 340 l 480 460 l 80 460 z"},"a":{"x_min":0,"x_max":500,"ha":500,"o":"m 250 400 l 316 210 l 184 210 z m 390 0 l 500 0 l 290 600 l 210 600 l 0 0 l 110 0 l 145 100 l 355 100 z"},"L":{"x_min":0,"x_max":560,"ha":560,"o":"m 520 0 l 520 120 l 200 120 l 200 800 l 80 800 l 80 0 z"},"3":{"x_min":0,"x_max":660,"ha":660,"o":"m 297 -10 b 444 -10 567 96 567 224 b 567 297 526 366 464 408 b 509 449 537 512 537 576 b 537 702 430 810 297 810 b 215 810 143 761 88 686 l 187 620 b 220 666 256 690 297 690 b 363 690 417 639 417 576 b 417 513 363 460 297 460 l 237 460 l 237 340 l 297 340 b 384 340 447 284 447 224 b 447 164 384 110 297 110 b 249 110 211 133 172 169 l 70 104 b 135 34 211 -10 297 -10 z"},";":{"x_min":0,"x_max":360,"ha":360,"o":"m 240 0 b 240 -66 164 -120 120 -120 l 120 -80 b 142 -80 180 -44 180 0 l 120 0 l 120 120 l 240 120 l 240 0 z m 120 480 l 240 480 l 240 600 l 120 600 z"},"J":{"x_min":0,"x_max":600,"ha":600,"o":"m 280 -10 b 413 -10 520 102 520 240 l 520 800 l 400 800 l 400 240 b 400 170 347 110 280 110 b 214 110 160 165 160 260 l 40 260 b 40 98 147 -10 280 -10 z"},"V":{"x_min":0,"x_max":656,"ha":656,"o":"m 380 0 l 656 800 l 540 800 l 328 182 l 116 800 l 0 800 l 276 0 z"},"\"":{"x_min":0,"x_max":400,"ha":400,"o":"m 280 600 l 320 600 l 360 720 l 360 800 l 240 800 l 240 720 z m 80 600 l 120 600 l 160 720 l 160 800 l 40 800 l 40 720 z"},"7":{"x_min":0,"x_max":660,"ha":660,"o":"m 625 800 l 83 800 l 83 680 l 428 680 l 71 0 l 205 0 z"},"S":{"x_min":0,"x_max":608,"ha":608,"o":"m 297 -10 b 444 -10 569 92 569 226 b 569 325 505 415 408 447 l 237 503 b 208 513 187 535 179 561 b 165 608 199 666 263 685 b 329 704 381 682 400 615 l 511 650 b 487 787 343 834 229 801 b 107 766 30 645 64 528 b 83 462 133 410 196 390 l 368 335 b 424 317 449 273 449 231 b 449 172 385 111 296 111 b 209 111 150 167 134 251 l 20 217 b 41 79 159 -10 297 -10 z"},"}":{"x_min":0,"x_max":458,"ha":458,"o":"m 300 302 b 300 334 383 390 398 400 b 383 410 300 466 300 498 l 300 673 b 300 730 240 800 80 800 b 178 756 180 726 180 673 l 180 478 b 180 448 216 415 234 400 b 216 385 180 352 180 322 l 180 127 b 180 74 178 44 80 0 b 240 0 300 70 300 127 l 300 302 z"},"Z":{"x_min":0,"x_max":660,"ha":660,"o":"m 620 0 l 620 120 l 190 120 l 620 690 l 620 800 l 40 800 l 40 680 l 470 680 l 40 110 l 40 0 z"},"x":{"x_min":0,"x_max":593,"ha":593,"o":"m 593 0 l 365 300 l 593 600 l 455 600 l 296 391 l 137 600 l 0 600 l 227 300 l 0 0 l 137 0 l 296 209 l 455 0 z"},")":{"x_min":0,"x_max":311,"ha":311,"o":"m 208 0 b 262 127 291 260 291 400 b 291 540 262 673 208 800 l 80 800 b 141 669 171 538 171 400 b 171 262 141 131 80 0 l 208 0 z"},"&":{"x_min":0,"x_max":763,"ha":763,"o":"m 439 176 b 406 140 358 110 312 106 b 246 100 153 133 153 209 b 153 264 206 306 282 356 z m 310 700 b 375 702 399 658 399 629 b 399 581 362 542 304 500 l 281 526 b 211 605 220 697 310 700 z m 743 0 l 583 182 b 620 248 641 319 660 400 l 541 400 b 531 349 521 313 501 276 l 375 419 b 444 470 507 533 512 628 b 517 728 431 814 309 810 b 95 802 75 593 191 460 l 211 437 b 128 382 40 314 40 209 b 40 36 210 -17 315 -8 b 391 -1 465 37 516 89 l 593 0 z"},"_":{"x_min":0,"x_max":560,"ha":560,"o":"m 80 0 l 480 0 l 480 120 l 80 120 z"},"v":{"x_min":0,"x_max":500,"ha":500,"o":"m 382 600 l 250 220 l 118 600 l 0 600 l 210 0 l 290 0 l 500 600 z"},"O":{"x_min":0,"x_max":880,"ha":880,"o":"m 440 690 b 594 690 720 560 720 400 b 720 240 594 110 440 110 b 286 110 160 240 160 400 b 160 560 286 690 440 690 z m 440 -10 b 661 -10 840 174 840 400 b 840 626 661 810 440 810 b 219 810 40 626 40 400 b 40 174 219 -10 440 -10 z"},"(":{"x_min":0,"x_max":311,"ha":311,"o":"m 271 0 b 210 131 180 262 180 400 b 180 538 210 669 271 800 l 143 800 b 89 673 60 540 60 400 b 60 260 89 127 143 0 z"},"C":{"x_min":0,"x_max":739,"ha":739,"o":"m 435 -10 b 529 -10 614 24 699 95 l 624 191 b 559 136 499 110 435 110 b 284 110 160 240 160 400 b 160 560 284 690 435 690 b 499 690 559 664 624 609 l 699 705 b 614 776 529 810 435 810 b 216 810 40 626 40 400 b 40 174 216 -10 435 -10 z"},"W":{"x_min":0,"x_max":1016,"ha":1016,"o":"m 1016 800 l 898 800 l 681 182 l 560 527 l 456 527 l 335 182 l 118 800 l 0 800 l 283 0 l 387 0 l 508 342 l 629 0 l 733 0 z"},"A":{"x_min":0,"x_max":656,"ha":656,"o":"m 419 340 l 237 340 l 328 610 z m 196 220 l 460 220 l 536 0 l 656 0 l 379 800 l 277 800 l 0 0 l 120 0 z"},"f":{"x_min":0,"x_max":500,"ha":500,"o":"m 200 0 l 200 245 l 410 245 l 410 355 l 200 355 l 200 480 l 440 480 l 440 600 l 80 600 l 80 0 z"},"Q":{"x_min":0,"x_max":909,"ha":909,"o":"m 440 690 b 594 690 720 560 720 400 b 720 334 698 272 662 223 l 601 290 l 446 290 l 577 147 b 536 123 490 110 440 110 b 286 110 160 240 160 400 b 160 560 286 690 440 690 z m 869 -1 l 745 134 b 805 206 840 299 840 400 b 840 626 661 810 440 810 b 219 810 40 626 40 400 b 40 174 219 -10 440 -10 b 521 -10 597 14 660 57 l 714 -1 z"},"w":{"x_min":0,"x_max":760,"ha":760,"o":"m 436 425 l 324 425 l 250 205 l 118 600 l 0 600 l 210 0 l 288 0 l 380 262 l 472 0 l 550 0 l 760 600 l 642 600 l 510 205 z"},"-":{"x_min":0,"x_max":520,"ha":520,"o":"m 80 260 l 440 260 l 440 380 l 80 380 z"},"E":{"x_min":0,"x_max":620,"ha":620,"o":"m 560 0 l 560 120 l 200 120 l 200 340 l 520 340 l 520 460 l 200 460 l 200 680 l 560 680 l 560 800 l 80 800 l 80 0 z"},"s":{"x_min":0,"x_max":506,"ha":506,"o":"m 249 -10 b 368 -10 467 69 467 175 b 467 254 418 322 339 347 l 208 388 b 191 393 179 406 175 420 b 168 445 185 480 227 491 b 270 503 305 489 322 435 l 432 469 b 409 592 286 627 193 602 b 92 575 34 480 62 387 b 78 334 113 296 165 279 l 295 237 b 334 224 349 199 349 178 b 349 146 312 105 250 105 b 193 105 149 139 132 210 l 20 178 b 40 58 136 -10 249 -10 z"},">":{"x_min":0,"x_max":580,"ha":580,"o":"m 520 252 l 520 348 l 80 486 l 80 386 l 350 300 l 80 214 l 80 114 z"},"l":{"x_min":0,"x_max":450,"ha":450,"o":"m 80 0 l 410 0 l 410 120 l 200 120 l 200 600 l 80 600 z"},"8":{"x_min":0,"x_max":660,"ha":660,"o":"m 195 220 b 195 278 256 335 330 335 b 404 335 465 278 465 220 b 465 162 404 105 330 105 b 256 105 195 162 195 220 z m 80 220 b 80 98 192 -10 330 -10 b 468 -10 580 98 580 220 b 580 298 534 377 464 416 b 516 456 550 519 550 590 b 550 712 452 810 330 810 b 208 810 110 712 110 590 b 110 519 144 456 196 416 b 126 377 80 298 80 220 z m 225 590 b 225 648 272 695 330 695 b 388 695 435 648 435 590 b 435 532 388 485 330 485 b 272 485 225 532 225 590 z"},"\\":{"x_min":0,"x_max":560,"ha":560,"o":"m 520 0 l 160 800 l 40 800 l 400 0 z"},"e":{"x_min":0,"x_max":500,"ha":500,"o":"m 80 0 l 440 0 l 440 120 l 190 120 l 190 245 l 410 245 l 410 355 l 190 355 l 190 480 l 440 480 l 440 600 l 80 600 z"},"b":{"x_min":0,"x_max":531,"ha":531,"o":"m 190 245 l 300 245 b 333 245 360 213 360 180 b 360 147 333 115 300 115 l 190 115 z m 190 485 l 286 485 b 319 485 345 453 345 420 b 345 387 319 355 286 355 l 190 355 z m 300 0 b 394 0 471 73 471 178 b 471 223 444 276 402 307 b 435 338 455 378 455 420 b 455 520 380 600 286 600 l 80 600 l 80 0 z"},"%":{"x_min":0,"x_max":800,"ha":800,"o":"m 540 160 b 540 193 567 220 600 220 b 633 220 660 193 660 160 b 660 127 633 100 600 100 b 567 100 540 127 540 160 z m 440 160 b 440 72 512 0 600 0 b 688 0 760 72 760 160 b 760 248 688 320 600 320 b 512 320 440 248 440 160 z m 140 640 b 140 673 167 700 200 700 b 233 700 260 673 260 640 b 260 607 233 580 200 580 b 167 580 140 607 140 640 z m 40 640 b 40 552 112 480 200 480 b 288 480 360 552 360 640 b 360 728 288 800 200 800 b 112 800 40 728 40 640 z m 640 800 l 520 800 l 160 0 l 280 0 z"},"m":{"x_min":0,"x_max":700,"ha":700,"o":"m 400 185 l 500 375 l 500 0 l 620 0 l 620 600 l 505 600 l 350 305 l 195 600 l 80 600 l 80 0 l 200 0 l 200 375 l 300 185 z"},"#":{"x_min":0,"x_max":830,"ha":830,"o":"m 517 505 l 423 295 l 313 295 l 407 505 z m 810 600 l 677 600 l 767 800 l 650 800 l 560 600 l 449 600 l 539 800 l 422 800 l 332 600 l 199 600 l 156 505 l 289 505 l 195 295 l 62 295 l 20 200 l 153 200 l 63 0 l 180 0 l 270 200 l 381 200 l 291 0 l 408 0 l 498 200 l 631 200 l 674 295 l 541 295 l 635 505 l 768 505 z"},",":{"x_min":0,"x_max":320,"ha":320,"o":"m 220 0 l 220 120 l 100 120 l 100 0 l 160 0 b 160 -44 142 -80 120 -80 l 120 -120 b 164 -120 220 -66 220 0 z"},"n":{"x_min":0,"x_max":650,"ha":650,"o":"m 570 0 l 570 600 l 450 600 l 450 212 l 195 600 l 80 600 l 80 0 l 200 0 l 200 388 l 455 0 z"},"h":{"x_min":0,"x_max":610,"ha":610,"o":"m 80 0 l 200 0 l 200 240 l 410 240 l 410 0 l 530 0 l 530 600 l 410 600 l 410 360 l 200 360 l 200 600 l 80 600 z"},"z":{"x_min":0,"x_max":560,"ha":560,"o":"m 520 0 l 520 120 l 200 120 l 520 500 l 520 600 l 40 600 l 40 480 l 360 480 l 40 100 l 40 0 z"},"B":{"x_min":0,"x_max":660,"ha":660,"o":"m 368 340 b 430 340 480 289 480 229 b 480 169 430 120 368 120 l 200 120 l 200 340 l 368 340 z m 349 680 b 411 680 460 631 460 571 b 460 511 411 460 349 460 l 200 460 l 200 680 l 349 680 z m 377 0 b 500 0 600 103 600 229 b 600 302 567 372 500 414 b 548 450 581 507 581 571 b 581 697 482 800 359 800 l 80 800 l 80 0 l 377 0 z"},"K":{"x_min":0,"x_max":681,"ha":681,"o":"m 681 0 l 324 441 l 616 800 l 473 800 l 200 460 l 200 800 l 80 800 l 80 0 l 200 0 l 200 288 l 254 354 l 539 0 z"},"R":{"x_min":0,"x_max":731,"ha":731,"o":"m 397 680 b 454 680 500 630 500 570 b 500 510 454 460 397 460 l 200 460 l 200 680 l 397 680 z m 555 0 l 691 0 l 510 372 b 576 412 620 486 620 570 b 620 696 520 800 397 800 l 80 800 l 80 0 l 200 0 l 200 340 l 387 340 z"},"T":{"x_min":0,"x_max":720,"ha":720,"o":"m 680 680 l 680 800 l 40 800 l 40 680 l 300 680 l 300 0 l 420 0 l 420 680 z"},"P":{"x_min":0,"x_max":660,"ha":660,"o":"m 397 680 b 454 680 500 630 500 570 b 500 510 454 460 397 460 l 200 460 l 200 680 l 397 680 z m 397 340 b 520 340 620 444 620 570 b 620 696 520 800 397 800 l 80 800 l 80 0 l 200 0 l 200 340 l 397 340 z"},"|":{"x_min":0,"x_max":360,"ha":360,"o":"m 120 -120 l 240 -120 l 240 920 l 120 920 z"},"t":{"x_min":0,"x_max":520,"ha":520,"o":"m 40 480 l 200 480 l 200 0 l 320 0 l 320 480 l 480 480 l 480 600 l 40 600 z"},"M":{"x_min":0,"x_max":840,"ha":840,"o":"m 760 0 l 760 800 l 650 800 l 420 408 l 190 800 l 80 800 l 80 0 l 200 0 l 200 558 l 367 276 l 473 276 l 640 558 l 640 0 z"},"g":{"x_min":0,"x_max":640,"ha":640,"o":"m 460 160 b 429 121 390 110 340 110 b 244 110 160 195 160 300 b 160 405 244 490 340 490 b 380 490 423 474 452 448 l 527 542 b 476 584 411 610 340 610 b 174 610 40 471 40 300 b 40 129 174 -10 340 -10 b 438 -10 525 41 580 115 l 580 340 l 360 340 l 360 240 l 460 240 l 460 160 z"},"j":{"x_min":0,"x_max":480,"ha":480,"o":"m 280 170 b 280 137 253 110 220 110 b 187 110 160 137 160 170 l 40 170 b 40 71 121 -10 220 -10 b 319 -10 400 71 400 170 l 400 600 l 280 600 z"},"i":{"x_min":0,"x_max":280,"ha":280,"o":"m 80 0 l 200 0 l 200 600 l 80 600 z"},"y":{"x_min":0,"x_max":593,"ha":593,"o":"m 236 0 l 356 0 l 356 258 l 593 600 l 455 600 l 296 370 l 137 600 l 0 600 l 236 258 z"},"@":{"x_min":0,"x_max":880,"ha":880,"o":"m 443 417 b 467 417 495 409 513 395 l 500 241 b 484 230 466 223 446 223 b 393 222 348 264 347 318 b 346 371 389 416 443 417 z m 813 204 b 827 233 844 280 839 348 b 824 568 632 734 412 719 b 192 704 26 512 41 292 b 56 72 248 -94 468 -79 b 518 -76 565 -63 621 -37 l 576 60 b 531 39 497 30 460 27 b 298 16 158 138 147 300 b 136 462 258 602 420 613 b 582 624 722 502 733 340 b 736 290 729 270 720 250 b 707 220 684 193 659 190 b 627 186 600 215 601 232 l 619 439 b 576 498 506 520 441 519 b 332 517 244 426 246 317 b 248 208 338 120 447 122 b 471 122 506 130 534 148 b 563 106 610 83 668 87 b 732 92 785 148 813 204 z"},".":{"x_min":0,"x_max":320,"ha":320,"o":"m 120 0 l 240 0 l 240 120 l 120 120 z"},"p":{"x_min":0,"x_max":520,"ha":520,"o":"m 291 485 b 332 485 365 449 365 410 b 365 371 336 335 295 335 l 195 335 l 195 485 z m 300 220 b 394 220 480 305 480 410 b 480 515 395 600 301 600 l 80 600 l 80 0 l 200 0 l 200 220 z"},"X":{"x_min":0,"x_max":716,"ha":716,"o":"m 716 0 l 429 400 l 716 800 l 575 800 l 358 499 l 141 800 l 0 800 l 287 400 l 0 0 l 141 0 l 358 301 l 575 0 z"},"*":{"x_min":0,"x_max":558,"ha":558,"o":"m 483 619 l 455 705 l 324 663 l 324 800 l 234 800 l 234 663 l 103 705 l 75 619 l 205 577 l 124 467 l 199 414 l 279 524 l 359 414 l 434 467 l 353 577 z"},"Y":{"x_min":0,"x_max":754,"ha":754,"o":"m 754 800 l 613 800 l 377 462 l 141 800 l 0 800 l 317 342 l 317 0 l 437 0 l 437 342 z"},"c":{"x_min":0,"x_max":567,"ha":567,"o":"m 452 152 b 422 126 382 110 340 110 b 241 110 160 196 160 300 b 160 404 241 490 340 490 b 382 490 422 474 452 448 l 527 542 b 476 584 411 610 340 610 b 174 610 40 471 40 300 b 40 129 174 -10 340 -10 b 411 -10 476 16 527 58 l 452 152 z"},"!":{"x_min":0,"x_max":320,"ha":320,"o":"m 120 0 l 240 0 l 240 120 l 120 120 z m 120 200 l 240 200 l 240 800 l 120 800 z"},"/":{"x_min":0,"x_max":520,"ha":520,"o":"m 520 800 l 400 800 l 40 0 l 160 0 z"},"[":{"x_min":0,"x_max":380,"ha":380,"o":"m 80 0 l 320 0 l 320 120 l 200 120 l 200 680 l 320 680 l 320 800 l 80 800 z"},"6":{"x_min":0,"x_max":660,"ha":660,"o":"m 290 391 b 370 411 453 365 474 289 b 495 213 448 134 368 114 b 288 94 205 139 184 215 b 163 291 210 371 290 391 z m 399 -1 b 543 36 629 180 590 320 b 554 451 423 532 289 512 l 440 800 l 312 800 l 89 372 b 60 316 51 251 69 185 b 108 45 255 -38 399 -1 z"},"r":{"x_min":0,"x_max":580,"ha":580,"o":"m 291 485 b 332 485 365 449 365 410 b 365 371 336 335 295 335 l 195 335 l 195 485 z m 290 220 l 420 0 l 540 0 l 396 251 b 445 285 480 343 480 410 b 480 515 395 600 301 600 l 80 600 l 80 0 l 200 0 l 200 220 z"},"2":{"x_min":0,"x_max":660,"ha":660,"o":"m 600 0 l 600 120 l 249 120 l 501 421 b 535 462 560 518 560 576 b 560 702 453 810 320 810 b 187 810 80 697 80 552 l 200 552 b 200 634 254 690 320 690 b 386 690 440 639 440 576 b 440 549 430 519 414 500 l 80 110 l 80 0 z"},"{":{"x_min":0,"x_max":458,"ha":458,"o":"m 158 127 b 158 70 218 0 378 0 b 280 44 278 74 278 127 l 278 322 b 278 352 242 385 224 400 b 242 415 278 448 278 478 l 278 673 b 278 726 280 756 378 800 b 218 800 158 730 158 673 l 158 498 b 158 466 75 410 60 400 b 75 390 158 334 158 302 l 158 127 z"},"9":{"x_min":0,"x_max":660,"ha":660,"o":"m 370 409 b 290 389 207 435 186 511 b 165 587 212 666 292 686 b 372 706 455 661 476 585 b 497 509 450 429 370 409 z m 261 801 b 117 764 31 620 70 480 b 106 349 237 268 371 288 l 220 0 l 348 0 l 571 428 b 600 484 609 549 591 615 b 552 755 405 838 261 801 z"}," ":{"x_min":0,"x_max":400,"ha":400,"o":""},"I":{"x_min":0,"x_max":320,"ha":320,"o":"m 220 0 l 220 800 l 100 800 l 100 0 z"},"H":{"x_min":0,"x_max":760,"ha":760,"o":"m 680 0 l 680 800 l 560 800 l 560 460 l 200 460 l 200 800 l 80 800 l 80 0 l 200 0 l 200 340 l 560 340 l 560 0 z"},"4":{"x_min":0,"x_max":660,"ha":660,"o":"m 360 340 l 166 340 l 360 600 z m 640 220 l 640 340 l 480 340 l 480 800 l 370 800 l 20 330 l 20 220 l 360 220 l 360 0 l 480 0 l 480 220 z"},"~":{"x_min":0,"x_max":560,"ha":560,"o":"m 344 243 b 437 243 480 304 480 414 l 392 414 b 392 358 361 349 344 349 b 294 349 303 407 216 407 b 123 407 80 346 80 236 l 168 236 b 168 292 199 301 216 301 b 266 301 257 243 344 243 z"},"D":{"x_min":0,"x_max":720,"ha":720,"o":"m 278 680 b 433 680 560 555 560 400 b 560 245 433 120 278 120 l 200 120 l 200 680 l 278 680 z m 286 0 b 503 0 680 179 680 400 b 680 621 503 800 286 800 l 80 800 l 80 0 l 286 0 z"},"^":{"x_min":0,"x_max":532,"ha":532,"o":"m 80 360 l 180 360 l 266 630 l 352 360 l 452 360 l 314 800 l 218 800 z"},"0":{"x_min":0,"x_max":660,"ha":660,"o":"m 180 400 b 180 554 247 690 330 690 b 413 690 480 554 480 400 b 480 246 413 110 330 110 b 247 110 180 246 180 400 z m 60 400 b 60 179 181 -10 330 -10 b 479 -10 600 179 600 400 b 600 621 479 810 330 810 b 181 810 60 621 60 400 z"},"F":{"x_min":0,"x_max":620,"ha":620,"o":"m 560 680 l 560 800 l 80 800 l 80 0 l 200 0 l 200 340 l 520 340 l 520 460 l 200 460 l 200 680 z"},"`":{"x_min":0,"x_max":420,"ha":420,"o":"m 210 840 l 340 840 l 210 970 l 80 970 z"},"k":{"x_min":0,"x_max":610,"ha":610,"o":"m 610 0 l 312 339 l 543 600 l 398 600 l 200 375 l 200 600 l 80 600 l 80 0 l 200 0 l 200 212 l 241 259 l 468 0 z"},"u":{"x_min":0,"x_max":600,"ha":600,"o":"m 400 210 b 400 155 355 110 300 110 b 245 110 200 155 200 210 l 200 600 l 80 600 l 80 210 b 80 89 178 -10 300 -10 b 422 -10 520 89 520 210 l 520 600 l 400 600 z"},"]":{"x_min":0,"x_max":380,"ha":380,"o":"m 300 800 l 60 800 l 60 680 l 180 680 l 180 120 l 60 120 l 60 0 l 300 0 z"},"U":{"x_min":0,"x_max":740,"ha":740,"o":"m 370 -10 b 530 -10 660 122 660 286 l 660 800 l 540 800 l 540 286 b 540 189 465 110 370 110 b 275 110 200 189 200 286 l 200 800 l 80 800 l 80 286 b 80 122 210 -10 370 -10 z"},"o":{"x_min":0,"x_max":680,"ha":680,"o":"m 151 300 b 151 409 236 497 340 497 b 444 497 529 409 529 300 b 529 191 444 103 340 103 b 236 103 151 191 151 300 z m 40 300 b 40 129 174 -10 340 -10 b 506 -10 640 129 640 300 b 640 471 506 610 340 610 b 174 610 40 471 40 300 z"},"N":{"x_min":0,"x_max":760,"ha":760,"o":"m 680 0 l 680 800 l 560 800 l 560 227 l 190 800 l 80 800 l 80 0 l 200 0 l 200 575 l 570 0 z"},"+":{"x_min":0,"x_max":560,"ha":560,"o":"m 340 120 l 340 260 l 480 260 l 480 380 l 340 380 l 340 520 l 220 520 l 220 380 l 80 380 l 80 260 l 220 260 l 220 120 z"},"G":{"x_min":0,"x_max":820,"ha":820,"o":"m 438 -10 b 568 -10 683 54 760 160 l 760 422 l 490 422 l 490 302 l 640 302 l 640 202 b 589 146 518 110 438 110 b 286 110 160 240 160 400 b 160 560 286 690 438 690 b 503 690 562 665 628 610 l 703 706 b 618 777 532 810 438 810 b 218 810 40 626 40 400 b 40 174 218 -10 438 -10 z"},"q":{"x_min":0,"x_max":700,"ha":700,"o":"m 151 300 b 151 409 236 497 340 497 b 444 497 529 409 529 300 b 529 256 516 215 492 182 l 429 250 l 308 250 l 425 124 b 399 111 371 103 340 103 b 236 103 151 191 151 300 z m 40 300 b 40 129 174 -10 340 -10 b 400 -10 456 9 503 40 l 540 0 l 660 0 l 568 99 b 613 153 640 223 640 300 b 640 471 506 610 340 610 b 174 610 40 471 40 300 z"},"d":{"x_min":0,"x_max":590,"ha":590,"o":"m 250 480 b 350 480 430 399 430 300 b 430 201 350 120 250 120 l 200 120 l 200 480 z m 250 0 b 416 0 550 134 550 300 b 550 466 416 600 250 600 l 80 600 l 80 0 z"},"1":{"x_min":0,"x_max":660,"ha":660,"o":"m 210 680 l 290 680 l 290 0 l 410 0 l 410 800 l 210 800 z"},"5":{"x_min":0,"x_max":660,"ha":660,"o":"m 380 -1 b 524 36 610 184 571 321 b 539 434 444 520 317 520 l 287 520 l 339 680 l 552 680 l 552 800 l 253 800 l 120 400 l 315 400 b 379 400 437 354 455 291 b 476 215 427 134 347 114 b 279 97 213 123 171 195 l 65 138 b 134 21 258 -32 380 -1 z"}}}
